<svg width="139" height="13" viewBox="0 0 139 13" fill="none" xmlns="http://www.w3.org/2000/svg">
<path d="M8.552 6.768H5.144V10.224H3.784V6.768H0.392V5.536H3.784V2.064H5.144V5.536H8.552V6.768ZM10.7379 10.832C12.0925 9.744 13.1539 8.85333 13.9219 8.16C14.6899 7.456 15.3352 6.72533 15.8579 5.968C16.3912 5.2 16.6579 4.448 16.6579 3.712C16.6579 3.01867 16.4872 2.47467 16.1459 2.08C15.8152 1.67467 15.2765 1.472 14.5299 1.472C13.8045 1.472 13.2392 1.70133 12.8339 2.16C12.4392 2.608 12.2259 3.21067 12.1939 3.968H10.7859C10.8285 2.77333 11.1912 1.85067 11.8739 1.2C12.5565 0.549333 13.4365 0.223999 14.5139 0.223999C15.6125 0.223999 16.4819 0.527999 17.1219 1.136C17.7725 1.744 18.0979 2.58133 18.0979 3.648C18.0979 4.53333 17.8312 5.39733 17.2979 6.24C16.7752 7.072 16.1779 7.808 15.5059 8.448C14.8339 9.07733 13.9752 9.81333 12.9299 10.656H18.4339V11.872H10.7379V10.832ZM20.085 3.344C20.1597 2.36267 20.5383 1.59467 21.221 1.04C21.9037 0.485332 22.789 0.207999 23.877 0.207999C24.6023 0.207999 25.2263 0.341333 25.749 0.608C26.2823 0.864 26.6823 1.216 26.949 1.664C27.2263 2.112 27.365 2.61867 27.365 3.184C27.365 3.84533 27.173 4.416 26.789 4.896C26.4157 5.376 25.925 5.68533 25.317 5.824V5.904C26.0103 6.07467 26.5597 6.41067 26.965 6.912C27.3703 7.41333 27.573 8.06933 27.573 8.88C27.573 9.488 27.4343 10.0373 27.157 10.528C26.8797 11.008 26.4637 11.3867 25.909 11.664C25.3543 11.9413 24.6877 12.08 23.909 12.08C22.7783 12.08 21.8503 11.7867 21.125 11.2C20.3997 10.6027 19.9943 9.76 19.909 8.672H21.317C21.3917 9.312 21.653 9.83467 22.101 10.24C22.549 10.6453 23.1463 10.848 23.893 10.848C24.6397 10.848 25.205 10.656 25.589 10.272C25.9837 9.87733 26.181 9.37067 26.181 8.752C26.181 7.952 25.9143 7.376 25.381 7.024C24.8477 6.672 24.0423 6.496 22.965 6.496H22.597V5.28H22.981C23.9623 5.26933 24.7037 5.10933 25.205 4.8C25.7063 4.48 25.957 3.98933 25.957 3.328C25.957 2.76267 25.7703 2.30933 25.397 1.968C25.0343 1.62667 24.5117 1.456 23.829 1.456C23.1677 1.456 22.6343 1.62667 22.229 1.968C21.8237 2.30933 21.5837 2.768 21.509 3.344H20.085ZM29.5069 3.344C29.5815 2.36267 29.9602 1.59467 30.6429 1.04C31.3255 0.485332 32.2109 0.207999 33.2989 0.207999C34.0242 0.207999 34.6482 0.341333 35.1709 0.608C35.7042 0.864 36.1042 1.216 36.3709 1.664C36.6482 2.112 36.7869 2.61867 36.7869 3.184C36.7869 3.84533 36.5949 4.416 36.2109 4.896C35.8375 5.376 35.3469 5.68533 34.7389 5.824V5.904C35.4322 6.07467 35.9815 6.41067 36.3869 6.912C36.7922 7.41333 36.9949 8.06933 36.9949 8.88C36.9949 9.488 36.8562 10.0373 36.5789 10.528C36.3015 11.008 35.8855 11.3867 35.3309 11.664C34.7762 11.9413 34.1095 12.08 33.3309 12.08C32.2002 12.08 31.2722 11.7867 30.5469 11.2C29.8215 10.6027 29.4162 9.76 29.3309 8.672H30.7389C30.8135 9.312 31.0749 9.83467 31.5229 10.24C31.9709 10.6453 32.5682 10.848 33.3149 10.848C34.0615 10.848 34.6269 10.656 35.0109 10.272C35.4055 9.87733 35.6029 9.37067 35.6029 8.752C35.6029 7.952 35.3362 7.376 34.8029 7.024C34.2695 6.672 33.4642 6.496 32.3869 6.496H32.0189V5.28H32.4029C33.3842 5.26933 34.1255 5.10933 34.6269 4.8C35.1282 4.48 35.3789 3.98933 35.3789 3.328C35.3789 2.76267 35.1922 2.30933 34.8189 1.968C34.4562 1.62667 33.9335 1.456 33.2509 1.456C32.5895 1.456 32.0562 1.62667 31.6509 1.968C31.2455 2.30933 31.0055 2.768 30.9309 3.344H29.5069ZM43.0504 10.832C44.405 9.744 45.4664 8.85333 46.2344 8.16C47.0024 7.456 47.6477 6.72533 48.1704 5.968C48.7037 5.2 48.9704 4.448 48.9704 3.712C48.9704 3.01867 48.7997 2.47467 48.4584 2.08C48.1277 1.67467 47.589 1.472 46.8424 1.472C46.117 1.472 45.5517 1.70133 45.1464 2.16C44.7517 2.608 44.5384 3.21067 44.5064 3.968H43.0984C43.141 2.77333 43.5037 1.85067 44.1864 1.2C44.869 0.549333 45.749 0.223999 46.8264 0.223999C47.925 0.223999 48.7944 0.527999 49.4344 1.136C50.085 1.744 50.4104 2.58133 50.4104 3.648C50.4104 4.53333 50.1437 5.39733 49.6104 6.24C49.0877 7.072 48.4904 7.808 47.8184 8.448C47.1464 9.07733 46.2877 9.81333 45.2424 10.656H50.7464V11.872H43.0504V10.832ZM52.0775 9.424V8.32L57.6935 0.544H59.4375V8.16H61.0375V9.424H59.4375V12H57.9975V9.424H52.0775ZM58.0615 2.064L53.7575 8.16H58.0615V2.064ZM62.14 9.424V8.32L67.756 0.544H69.5V8.16H71.1V9.424H69.5V12H68.06V9.424H62.14ZM68.124 2.064L63.82 8.16H68.124V2.064ZM76.6441 10.832C77.9988 9.744 79.0601 8.85333 79.8281 8.16C80.5961 7.456 81.2415 6.72533 81.7641 5.968C82.2975 5.2 82.5641 4.448 82.5641 3.712C82.5641 3.01867 82.3935 2.47467 82.0521 2.08C81.7215 1.67467 81.1828 1.472 80.4361 1.472C79.7108 1.472 79.1455 1.70133 78.7401 2.16C78.3455 2.608 78.1321 3.21067 78.1001 3.968H76.6921C76.7348 2.77333 77.0975 1.85067 77.7801 1.2C78.4628 0.549333 79.3428 0.223999 80.4201 0.223999C81.5188 0.223999 82.3881 0.527999 83.0281 1.136C83.6788 1.744 84.0041 2.58133 84.0041 3.648C84.0041 4.53333 83.7375 5.39733 83.2041 6.24C82.6815 7.072 82.0841 7.808 81.4121 8.448C80.7401 9.07733 79.8815 9.81333 78.8361 10.656H84.3401V11.872H76.6441V10.832ZM85.6713 9.424V8.32L91.2873 0.544H93.0312V8.16H94.6313V9.424H93.0312V12H91.5913V9.424H85.6713ZM91.6553 2.064L87.3513 8.16H91.6553V2.064ZM95.7338 9.424V8.32L101.35 0.544H103.094V8.16H104.694V9.424H103.094V12H101.654V9.424H95.7338ZM101.718 2.064L97.4138 8.16H101.718V2.064ZM110.238 10.832C111.593 9.744 112.654 8.85333 113.422 8.16C114.19 7.456 114.835 6.72533 115.358 5.968C115.891 5.2 116.158 4.448 116.158 3.712C116.158 3.01867 115.987 2.47467 115.646 2.08C115.315 1.67467 114.777 1.472 114.03 1.472C113.305 1.472 112.739 1.70133 112.334 2.16C111.939 2.608 111.726 3.21067 111.694 3.968H110.286C110.329 2.77333 110.691 1.85067 111.374 1.2C112.057 0.549333 112.937 0.223999 114.014 0.223999C115.113 0.223999 115.982 0.527999 116.622 1.136C117.273 1.744 117.598 2.58133 117.598 3.648C117.598 4.53333 117.331 5.39733 116.798 6.24C116.275 7.072 115.678 7.808 115.006 8.448C114.334 9.07733 113.475 9.81333 112.43 10.656H117.934V11.872H110.238V10.832ZM119.265 9.424V8.32L124.881 0.544H126.625V8.16H128.225V9.424H126.625V12H125.185V9.424H119.265ZM125.249 2.064L120.945 8.16H125.249V2.064ZM129.328 9.424V8.32L134.944 0.544H136.688V8.16H138.288V9.424H136.688V12H135.248V9.424H129.328ZM135.312 2.064L131.008 8.16H135.312V2.064Z" fill="black"/>
</svg>
