<svg width="224" height="18" viewBox="0 0 224 18" fill="none" xmlns="http://www.w3.org/2000/svg">
<path d="M0.608 2.76V1.432H3.616V13H2.144V2.76H0.608ZM7.989 9.896C8.09567 10.504 8.341 10.9733 8.725 11.304C9.11967 11.6347 9.64767 11.8 10.309 11.8C11.1943 11.8 11.845 11.4533 12.261 10.76C12.6877 10.0667 12.8903 8.89867 12.869 7.256C12.645 7.736 12.2717 8.11467 11.749 8.392C11.2263 8.65867 10.645 8.792 10.005 8.792C9.29033 8.792 8.65033 8.648 8.085 8.36C7.53033 8.06133 7.093 7.62933 6.773 7.064C6.453 6.49867 6.293 5.816 6.293 5.016C6.293 3.87467 6.62367 2.95733 7.285 2.264C7.94633 1.56 8.885 1.208 10.101 1.208C11.5943 1.208 12.6397 1.69333 13.237 2.664C13.845 3.63467 14.149 5.08 14.149 7C14.149 8.344 14.0263 9.45333 13.781 10.328C13.5463 11.2027 13.141 11.8693 12.565 12.328C11.9997 12.7867 11.221 13.016 10.229 13.016C9.141 13.016 8.293 12.7227 7.685 12.136C7.077 11.5493 6.73033 10.8027 6.645 9.896H7.989ZM10.245 7.56C10.9597 7.56 11.5463 7.34133 12.005 6.904C12.4637 6.456 12.693 5.85333 12.693 5.096C12.693 4.296 12.469 3.65067 12.021 3.16C11.573 2.66933 10.9437 2.424 10.133 2.424C9.38633 2.424 8.789 2.65867 8.341 3.128C7.90367 3.59733 7.685 4.216 7.685 4.984C7.685 5.76267 7.90367 6.38667 8.341 6.856C8.77833 7.32533 9.413 7.56 10.245 7.56ZM15.8431 10.424V9.32L21.4591 1.544H23.2031V9.16H24.8031V10.424H23.2031V13H21.7631V10.424H15.8431ZM21.8271 3.064L17.5231 9.16H21.8271V3.064ZM42.0753 1.928V13H40.6193V4.744L36.9393 13H35.9153L32.2193 4.728V13H30.7633V1.928H32.3313L36.4273 11.08L40.5233 1.928H42.0753ZM44.0005 8.584C44.0005 7.688 44.1818 6.904 44.5445 6.232C44.9072 5.54933 45.4032 5.02133 46.0325 4.648C46.6725 4.27467 47.3818 4.088 48.1605 4.088C48.9285 4.088 49.5952 4.25333 50.1605 4.584C50.7258 4.91467 51.1472 5.33067 51.4245 5.832V4.232H52.8965V13H51.4245V11.368C51.1365 11.88 50.7045 12.3067 50.1285 12.648C49.5632 12.9787 48.9018 13.144 48.1445 13.144C47.3658 13.144 46.6618 12.952 46.0325 12.568C45.4032 12.184 44.9072 11.6453 44.5445 10.952C44.1818 10.2587 44.0005 9.46933 44.0005 8.584ZM51.4245 8.6C51.4245 7.93867 51.2912 7.36267 51.0245 6.872C50.7578 6.38133 50.3952 6.008 49.9365 5.752C49.4885 5.48533 48.9925 5.352 48.4485 5.352C47.9045 5.352 47.4085 5.48 46.9605 5.736C46.5125 5.992 46.1552 6.36533 45.8885 6.856C45.6218 7.34667 45.4885 7.92267 45.4885 8.584C45.4885 9.256 45.6218 9.84267 45.8885 10.344C46.1552 10.8347 46.5125 11.2133 46.9605 11.48C47.4085 11.736 47.9045 11.864 48.4485 11.864C48.9925 11.864 49.4885 11.736 49.9365 11.48C50.3952 11.2133 50.7578 10.8347 51.0245 10.344C51.2912 9.84267 51.4245 9.26133 51.4245 8.6ZM56.109 2.808C55.8317 2.808 55.597 2.712 55.405 2.52C55.213 2.328 55.117 2.09333 55.117 1.816C55.117 1.53867 55.213 1.304 55.405 1.112C55.597 0.919999 55.8317 0.823999 56.109 0.823999C56.3757 0.823999 56.5997 0.919999 56.781 1.112C56.973 1.304 57.069 1.53867 57.069 1.816C57.069 2.09333 56.973 2.328 56.781 2.52C56.5997 2.712 56.3757 2.808 56.109 2.808ZM56.813 4.232V13H55.357V4.232H56.813ZM63.5665 4.072C64.6332 4.072 65.4972 4.39733 66.1585 5.048C66.8198 5.688 67.1505 6.616 67.1505 7.832V13H65.7105V8.04C65.7105 7.16533 65.4918 6.49867 65.0545 6.04C64.6172 5.57067 64.0198 5.336 63.2625 5.336C62.4945 5.336 61.8812 5.576 61.4225 6.056C60.9745 6.536 60.7505 7.23467 60.7505 8.152V13H59.2945V4.232H60.7505V5.48C61.0385 5.032 61.4278 4.68533 61.9185 4.44C62.4198 4.19467 62.9692 4.072 63.5665 4.072ZM79.6665 13L77.0105 8.44H75.2505V13H73.7945V1.848H77.3945C78.2372 1.848 78.9465 1.992 79.5225 2.28C80.1092 2.568 80.5465 2.95733 80.8345 3.448C81.1225 3.93867 81.2665 4.49867 81.2665 5.128C81.2665 5.896 81.0425 6.57333 80.5945 7.16C80.1572 7.74667 79.4958 8.136 78.6105 8.328L81.4105 13H79.6665ZM75.2505 7.272H77.3945C78.1838 7.272 78.7758 7.08 79.1705 6.696C79.5652 6.30133 79.7625 5.77867 79.7625 5.128C79.7625 4.46667 79.5652 3.95467 79.1705 3.592C78.7865 3.22933 78.1945 3.048 77.3945 3.048H75.2505V7.272ZM82.9849 8.584C82.9849 7.688 83.1662 6.904 83.5289 6.232C83.8915 5.54933 84.3875 5.02133 85.0169 4.648C85.6569 4.27467 86.3715 4.088 87.1609 4.088C87.8435 4.088 88.4782 4.248 89.0649 4.568C89.6515 4.87733 90.0995 5.288 90.4089 5.8V1.16H91.8809V13H90.4089V11.352C90.1209 11.8747 89.6942 12.3067 89.1289 12.648C88.5635 12.9787 87.9022 13.144 87.1449 13.144C86.3662 13.144 85.6569 12.952 85.0169 12.568C84.3875 12.184 83.8915 11.6453 83.5289 10.952C83.1662 10.2587 82.9849 9.46933 82.9849 8.584ZM90.4089 8.6C90.4089 7.93867 90.2755 7.36267 90.0089 6.872C89.7422 6.38133 89.3795 6.008 88.9209 5.752C88.4729 5.48533 87.9769 5.352 87.4329 5.352C86.8889 5.352 86.3929 5.48 85.9449 5.736C85.4969 5.992 85.1395 6.36533 84.8729 6.856C84.6062 7.34667 84.4729 7.92267 84.4729 8.584C84.4729 9.256 84.6062 9.84267 84.8729 10.344C85.1395 10.8347 85.4969 11.2133 85.9449 11.48C86.3929 11.736 86.8889 11.864 87.4329 11.864C87.9769 11.864 88.4729 11.736 88.9209 11.48C89.3795 11.2133 89.7422 10.8347 90.0089 10.344C90.2755 9.84267 90.4089 9.26133 90.4089 8.6ZM105.471 1.848V3.032H102.431V13H100.975V3.032H97.919V1.848H105.471ZM108.767 10.984L106.975 15.288H105.999L107.167 10.984H108.767ZM121.005 1.848V3.032H116.157V6.792H120.093V7.976H116.157V13H114.701V1.848H121.005ZM126.299 13.112C125.563 13.112 124.902 12.984 124.315 12.728C123.739 12.4613 123.286 12.0987 122.955 11.64C122.625 11.1707 122.454 10.632 122.443 10.024H123.995C124.049 10.5467 124.262 10.9893 124.635 11.352C125.019 11.704 125.574 11.88 126.299 11.88C126.993 11.88 127.537 11.7093 127.931 11.368C128.337 11.016 128.539 10.568 128.539 10.024C128.539 9.59733 128.422 9.25067 128.187 8.984C127.953 8.71733 127.659 8.51467 127.307 8.376C126.955 8.23733 126.481 8.088 125.883 7.928C125.147 7.736 124.555 7.544 124.107 7.352C123.67 7.16 123.291 6.86133 122.971 6.456C122.662 6.04 122.507 5.48533 122.507 4.792C122.507 4.184 122.662 3.64533 122.971 3.176C123.281 2.70667 123.713 2.344 124.267 2.088C124.833 1.832 125.478 1.704 126.203 1.704C127.249 1.704 128.102 1.96533 128.763 2.488C129.435 3.01067 129.814 3.704 129.899 4.568H128.299C128.246 4.14133 128.022 3.768 127.627 3.448C127.233 3.11733 126.71 2.952 126.059 2.952C125.451 2.952 124.955 3.112 124.571 3.432C124.187 3.74133 123.995 4.17867 123.995 4.744C123.995 5.14933 124.107 5.48 124.331 5.736C124.566 5.992 124.849 6.18933 125.179 6.328C125.521 6.456 125.995 6.60533 126.603 6.776C127.339 6.97867 127.931 7.18133 128.379 7.384C128.827 7.576 129.211 7.88 129.531 8.296C129.851 8.70133 130.011 9.256 130.011 9.96C130.011 10.504 129.867 11.016 129.579 11.496C129.291 11.976 128.865 12.3653 128.299 12.664C127.734 12.9627 127.067 13.112 126.299 13.112ZM142.292 13L139.636 8.44H137.876V13H136.42V1.848H140.02C140.862 1.848 141.572 1.992 142.148 2.28C142.734 2.568 143.172 2.95733 143.46 3.448C143.748 3.93867 143.892 4.49867 143.892 5.128C143.892 5.896 143.668 6.57333 143.22 7.16C142.782 7.74667 142.121 8.136 141.236 8.328L144.036 13H142.292ZM137.876 7.272H140.02C140.809 7.272 141.401 7.08 141.796 6.696C142.19 6.30133 142.388 5.77867 142.388 5.128C142.388 4.46667 142.19 3.95467 141.796 3.592C141.412 3.22933 140.82 3.048 140.02 3.048H137.876V7.272ZM145.61 8.584C145.61 7.688 145.791 6.904 146.154 6.232C146.517 5.54933 147.013 5.02133 147.642 4.648C148.282 4.27467 148.991 4.088 149.77 4.088C150.538 4.088 151.205 4.25333 151.77 4.584C152.335 4.91467 152.757 5.33067 153.034 5.832V4.232H154.506V13H153.034V11.368C152.746 11.88 152.314 12.3067 151.738 12.648C151.173 12.9787 150.511 13.144 149.754 13.144C148.975 13.144 148.271 12.952 147.642 12.568C147.013 12.184 146.517 11.6453 146.154 10.952C145.791 10.2587 145.61 9.46933 145.61 8.584ZM153.034 8.6C153.034 7.93867 152.901 7.36267 152.634 6.872C152.367 6.38133 152.005 6.008 151.546 5.752C151.098 5.48533 150.602 5.352 150.058 5.352C149.514 5.352 149.018 5.48 148.57 5.736C148.122 5.992 147.765 6.36533 147.498 6.856C147.231 7.34667 147.098 7.92267 147.098 8.584C147.098 9.256 147.231 9.84267 147.498 10.344C147.765 10.8347 148.122 11.2133 148.57 11.48C149.018 11.736 149.514 11.864 150.058 11.864C150.602 11.864 151.098 11.736 151.546 11.48C152.005 11.2133 152.367 10.8347 152.634 10.344C152.901 9.84267 153.034 9.26133 153.034 8.6ZM164.518 4.232L159.238 17.128H157.734L159.462 12.904L155.926 4.232H157.542L160.294 11.336L163.014 4.232H164.518ZM173.982 8.28C173.982 8.55733 173.966 8.85067 173.934 9.16H166.926C166.979 10.024 167.273 10.7013 167.806 11.192C168.35 11.672 169.006 11.912 169.774 11.912C170.403 11.912 170.926 11.768 171.342 11.48C171.769 11.1813 172.067 10.7867 172.238 10.296H173.806C173.571 11.1387 173.102 11.8267 172.398 12.36C171.694 12.8827 170.819 13.144 169.774 13.144C168.942 13.144 168.195 12.9573 167.534 12.584C166.883 12.2107 166.371 11.6827 165.998 11C165.625 10.3067 165.438 9.50667 165.438 8.6C165.438 7.69333 165.619 6.89867 165.982 6.216C166.345 5.53333 166.851 5.01067 167.502 4.648C168.163 4.27467 168.921 4.088 169.774 4.088C170.606 4.088 171.342 4.26933 171.982 4.632C172.622 4.99467 173.113 5.496 173.454 6.136C173.806 6.76533 173.982 7.48 173.982 8.28ZM172.478 7.976C172.478 7.42133 172.355 6.94667 172.11 6.552C171.865 6.14667 171.529 5.84267 171.102 5.64C170.686 5.42667 170.222 5.32 169.71 5.32C168.974 5.32 168.345 5.55467 167.822 6.024C167.31 6.49333 167.017 7.144 166.942 7.976H172.478ZM175.36 8.584C175.36 7.688 175.541 6.904 175.904 6.232C176.267 5.54933 176.763 5.02133 177.392 4.648C178.032 4.27467 178.747 4.088 179.536 4.088C180.219 4.088 180.853 4.248 181.44 4.568C182.027 4.87733 182.475 5.288 182.784 5.8V1.16H184.256V13H182.784V11.352C182.496 11.8747 182.069 12.3067 181.504 12.648C180.939 12.9787 180.277 13.144 179.52 13.144C178.741 13.144 178.032 12.952 177.392 12.568C176.763 12.184 176.267 11.6453 175.904 10.952C175.541 10.2587 175.36 9.46933 175.36 8.584ZM182.784 8.6C182.784 7.93867 182.651 7.36267 182.384 6.872C182.117 6.38133 181.755 6.008 181.296 5.752C180.848 5.48533 180.352 5.352 179.808 5.352C179.264 5.352 178.768 5.48 178.32 5.736C177.872 5.992 177.515 6.36533 177.248 6.856C176.981 7.34667 176.848 7.92267 176.848 8.584C176.848 9.256 176.981 9.84267 177.248 10.344C177.515 10.8347 177.872 11.2133 178.32 11.48C178.768 11.736 179.264 11.864 179.808 11.864C180.352 11.864 180.848 11.736 181.296 11.48C181.755 11.2133 182.117 10.8347 182.384 10.344C182.651 9.84267 182.784 9.26133 182.784 8.6ZM188.22 10.984L186.428 15.288H185.452L186.62 10.984H188.22ZM195.578 1.848V8.904C195.578 9.896 195.818 10.632 196.298 11.112C196.789 11.592 197.466 11.832 198.33 11.832C199.183 11.832 199.85 11.592 200.33 11.112C200.821 10.632 201.066 9.896 201.066 8.904V1.848H202.522V8.888C202.522 9.816 202.335 10.6 201.962 11.24C201.589 11.8693 201.082 12.3387 200.442 12.648C199.813 12.9573 199.103 13.112 198.314 13.112C197.525 13.112 196.81 12.9573 196.17 12.648C195.541 12.3387 195.039 11.8693 194.666 11.24C194.303 10.6 194.122 9.816 194.122 8.888V1.848H195.578ZM208.487 13.112C207.751 13.112 207.089 12.984 206.503 12.728C205.927 12.4613 205.473 12.0987 205.143 11.64C204.812 11.1707 204.641 10.632 204.631 10.024H206.183C206.236 10.5467 206.449 10.9893 206.823 11.352C207.207 11.704 207.761 11.88 208.487 11.88C209.18 11.88 209.724 11.7093 210.119 11.368C210.524 11.016 210.727 10.568 210.727 10.024C210.727 9.59733 210.609 9.25067 210.375 8.984C210.14 8.71733 209.847 8.51467 209.495 8.376C209.143 8.23733 208.668 8.088 208.071 7.928C207.335 7.736 206.743 7.544 206.295 7.352C205.857 7.16 205.479 6.86133 205.159 6.456C204.849 6.04 204.695 5.48533 204.695 4.792C204.695 4.184 204.849 3.64533 205.159 3.176C205.468 2.70667 205.9 2.344 206.455 2.088C207.02 1.832 207.665 1.704 208.391 1.704C209.436 1.704 210.289 1.96533 210.951 2.488C211.623 3.01067 212.001 3.704 212.087 4.568H210.487C210.433 4.14133 210.209 3.768 209.815 3.448C209.42 3.11733 208.897 2.952 208.247 2.952C207.639 2.952 207.143 3.112 206.759 3.432C206.375 3.74133 206.183 4.17867 206.183 4.744C206.183 5.14933 206.295 5.48 206.519 5.736C206.753 5.992 207.036 6.18933 207.367 6.328C207.708 6.456 208.183 6.60533 208.791 6.776C209.527 6.97867 210.119 7.18133 210.567 7.384C211.015 7.576 211.399 7.88 211.719 8.296C212.039 8.70133 212.199 9.256 212.199 9.96C212.199 10.504 212.055 11.016 211.767 11.496C211.479 11.976 211.052 12.3653 210.487 12.664C209.921 12.9627 209.255 13.112 208.487 13.112ZM220.933 10.52H216.069L215.173 13H213.637L217.669 1.912H219.349L223.365 13H221.829L220.933 10.52ZM220.517 9.336L218.501 3.704L216.485 9.336H220.517Z" fill="black"/>
</svg>
