<svg width="199" height="24" viewBox="0 0 199 24" fill="none" xmlns="http://www.w3.org/2000/svg">
<path d="M10.4873 12.17C11.6673 12.39 12.6673 12.99 13.4873 13.97C14.3073 14.95 14.7173 16.09 14.7173 17.39C14.7173 18.45 14.4473 19.41 13.9073 20.27C13.3873 21.11 12.6173 21.78 11.5973 22.28C10.5773 22.76 9.35734 23 7.93734 23H0.677344V2.03H7.72734C9.84734 2.03 11.4573 2.52 12.5573 3.5C13.6773 4.48 14.2373 5.75 14.2373 7.31C14.2373 8.61 13.8873 9.67 13.1873 10.49C12.4873 11.29 11.5873 11.85 10.4873 12.17ZM2.77734 11.3H7.66734C9.08734 11.3 10.1773 10.97 10.9373 10.31C11.7173 9.63 12.1073 8.7 12.1073 7.52C12.1073 6.36 11.7173 5.45 10.9373 4.79C10.1773 4.13 9.05734 3.8 7.57734 3.8H2.77734V11.3ZM7.78734 21.23C9.30734 21.23 10.4873 20.87 11.3273 20.15C12.1873 19.43 12.6173 18.44 12.6173 17.18C12.6173 15.92 12.1673 14.92 11.2673 14.18C10.3873 13.42 9.19734 13.04 7.69734 13.04H2.77734V21.23H7.78734ZM33.3977 13.97C33.3977 14.69 33.3777 15.24 33.3377 15.62H19.7477C19.8077 16.86 20.1077 17.92 20.6477 18.8C21.1877 19.68 21.8977 20.35 22.7777 20.81C23.6577 21.25 24.6177 21.47 25.6577 21.47C27.0177 21.47 28.1577 21.14 29.0777 20.48C30.0177 19.82 30.6377 18.93 30.9377 17.81H33.1577C32.7577 19.41 31.8977 20.72 30.5777 21.74C29.2777 22.74 27.6377 23.24 25.6577 23.24C24.1177 23.24 22.7377 22.9 21.5177 22.22C20.2977 21.52 19.3377 20.54 18.6377 19.28C17.9577 18 17.6177 16.51 17.6177 14.81C17.6177 13.11 17.9577 11.62 18.6377 10.34C19.3177 9.06 20.2677 8.08 21.4877 7.4C22.7077 6.72 24.0977 6.38 25.6577 6.38C27.2177 6.38 28.5777 6.72 29.7377 7.4C30.9177 8.08 31.8177 9 32.4377 10.16C33.0777 11.3 33.3977 12.57 33.3977 13.97ZM31.2677 13.91C31.2877 12.69 31.0377 11.65 30.5177 10.79C30.0177 9.93 29.3277 9.28 28.4477 8.84C27.5677 8.4 26.6077 8.18 25.5677 8.18C24.0077 8.18 22.6777 8.68 21.5777 9.68C20.4777 10.68 19.8677 12.09 19.7477 13.91H31.2677ZM42.8798 23.24C40.9998 23.24 39.4598 22.81 38.2598 21.95C37.0798 21.07 36.4198 19.88 36.2798 18.38H38.4398C38.5398 19.3 38.9698 20.05 39.7298 20.63C40.5098 21.19 41.5498 21.47 42.8498 21.47C43.9898 21.47 44.8798 21.2 45.5198 20.66C46.1798 20.12 46.5098 19.45 46.5098 18.65C46.5098 18.09 46.3298 17.63 45.9698 17.27C45.6098 16.91 45.1498 16.63 44.5898 16.43C44.0498 16.21 43.3098 15.98 42.3698 15.74C41.1498 15.42 40.1598 15.1 39.3998 14.78C38.6398 14.46 37.9898 13.99 37.4498 13.37C36.9298 12.73 36.6698 11.88 36.6698 10.82C36.6698 10.02 36.9098 9.28 37.3898 8.6C37.8698 7.92 38.5498 7.38 39.4298 6.98C40.3098 6.58 41.3098 6.38 42.4298 6.38C44.1898 6.38 45.6098 6.83 46.6898 7.73C47.7698 8.61 48.3498 9.83 48.4298 11.39H46.3298C46.2698 10.43 45.8898 9.66 45.1898 9.08C44.5098 8.48 43.5698 8.18 42.3698 8.18C41.3098 8.18 40.4498 8.43 39.7898 8.93C39.1298 9.43 38.7998 10.05 38.7998 10.79C38.7998 11.43 38.9898 11.96 39.3698 12.38C39.7698 12.78 40.2598 13.1 40.8398 13.34C41.4198 13.56 42.1998 13.81 43.1798 14.09C44.3598 14.41 45.2998 14.72 45.9998 15.02C46.6998 15.32 47.2998 15.76 47.7998 16.34C48.2998 16.92 48.5598 17.69 48.5798 18.65C48.5798 19.53 48.3398 20.32 47.8598 21.02C47.3798 21.7 46.7098 22.24 45.8498 22.64C44.9898 23.04 43.9998 23.24 42.8798 23.24ZM55.2628 8.39V18.56C55.2628 19.56 55.4528 20.25 55.8328 20.63C56.2128 21.01 56.8828 21.2 57.8428 21.2H59.7628V23H57.5128C56.0328 23 54.9328 22.66 54.2128 21.98C53.4928 21.28 53.1328 20.14 53.1328 18.56V8.39H50.8528V6.62H53.1328V2.51H55.2628V6.62H59.7628V8.39H55.2628ZM84.8686 8.06C84.8686 9.86 84.2786 11.31 83.0986 12.41C81.9186 13.51 80.1486 14.06 77.7886 14.06H73.5586V23H71.4586V2.03H77.7886C80.1286 2.03 81.8886 2.58 83.0686 3.68C84.2686 4.78 84.8686 6.24 84.8686 8.06ZM77.7886 12.26C81.0686 12.26 82.7086 10.86 82.7086 8.06C82.7086 6.66 82.3186 5.6 81.5386 4.88C80.7586 4.16 79.5086 3.8 77.7886 3.8H73.5586V12.26H77.7886ZM90.4922 9.53C90.9522 8.51 91.6522 7.72 92.5922 7.16C93.5522 6.6 94.7222 6.32 96.1022 6.32V8.51H95.5322C94.0122 8.51 92.7922 8.92 91.8722 9.74C90.9522 10.56 90.4922 11.93 90.4922 13.85V23H88.3922V6.62H90.4922V9.53ZM106.431 23.24C104.891 23.24 103.501 22.9 102.261 22.22C101.041 21.52 100.071 20.54 99.3513 19.28C98.6513 18 98.3013 16.51 98.3013 14.81C98.3013 13.11 98.6613 11.63 99.3813 10.37C100.101 9.09 101.081 8.11 102.321 7.43C103.561 6.73 104.951 6.38 106.491 6.38C108.031 6.38 109.421 6.73 110.661 7.43C111.921 8.11 112.901 9.09 113.601 10.37C114.321 11.63 114.681 13.11 114.681 14.81C114.681 16.49 114.321 17.97 113.601 19.25C112.881 20.53 111.891 21.52 110.631 22.22C109.371 22.9 107.971 23.24 106.431 23.24ZM106.431 21.41C107.511 21.41 108.511 21.17 109.431 20.69C110.351 20.19 111.091 19.45 111.651 18.47C112.231 17.47 112.521 16.25 112.521 14.81C112.521 13.37 112.241 12.16 111.681 11.18C111.121 10.18 110.381 9.44 109.461 8.96C108.541 8.46 107.541 8.21 106.461 8.21C105.381 8.21 104.381 8.46 103.461 8.96C102.541 9.44 101.801 10.18 101.241 11.18C100.701 12.16 100.431 13.37 100.431 14.81C100.431 16.25 100.701 17.47 101.241 18.47C101.801 19.45 102.531 20.19 103.431 20.69C104.351 21.17 105.351 21.41 106.431 21.41ZM117.549 14.78C117.549 13.1 117.889 11.63 118.569 10.37C119.249 9.09 120.179 8.11 121.359 7.43C122.559 6.73 123.909 6.38 125.409 6.38C126.849 6.38 128.149 6.73 129.309 7.43C130.469 8.13 131.319 9.04 131.859 10.16V0.8H133.959V23H131.859V19.34C131.359 20.48 130.539 21.42 129.399 22.16C128.259 22.88 126.919 23.24 125.379 23.24C123.879 23.24 122.529 22.89 121.329 22.19C120.149 21.49 119.219 20.5 118.539 19.22C117.879 17.94 117.549 16.46 117.549 14.78ZM131.859 14.81C131.859 13.49 131.589 12.33 131.049 11.33C130.509 10.33 129.769 9.56 128.829 9.02C127.909 8.48 126.889 8.21 125.769 8.21C124.609 8.21 123.569 8.47 122.649 8.99C121.729 9.51 120.999 10.27 120.459 11.27C119.939 12.25 119.679 13.42 119.679 14.78C119.679 16.12 119.939 17.3 120.459 18.32C120.999 19.32 121.729 20.09 122.649 20.63C123.569 21.15 124.609 21.41 125.769 21.41C126.889 21.41 127.909 21.14 128.829 20.6C129.769 20.06 130.509 19.29 131.049 18.29C131.589 17.29 131.859 16.13 131.859 14.81ZM152.944 6.62V23H150.844V20.12C150.364 21.14 149.624 21.92 148.624 22.46C147.624 23 146.504 23.27 145.264 23.27C143.304 23.27 141.704 22.67 140.464 21.47C139.224 20.25 138.604 18.49 138.604 16.19V6.62H140.674V15.95C140.674 17.73 141.114 19.09 141.994 20.03C142.894 20.97 144.114 21.44 145.654 21.44C147.234 21.44 148.494 20.94 149.434 19.94C150.374 18.94 150.844 17.47 150.844 15.53V6.62H152.944ZM156.778 14.81C156.778 13.11 157.118 11.63 157.798 10.37C158.478 9.09 159.418 8.11 160.618 7.43C161.818 6.73 163.188 6.38 164.728 6.38C166.748 6.38 168.408 6.88 169.708 7.88C171.028 8.88 171.878 10.24 172.258 11.96H170.008C169.728 10.78 169.118 9.86 168.178 9.2C167.258 8.52 166.108 8.18 164.728 8.18C163.628 8.18 162.638 8.43 161.758 8.93C160.878 9.43 160.178 10.18 159.658 11.18C159.158 12.16 158.908 13.37 158.908 14.81C158.908 16.25 159.158 17.47 159.658 18.47C160.178 19.47 160.878 20.22 161.758 20.72C162.638 21.22 163.628 21.47 164.728 21.47C166.108 21.47 167.258 21.14 168.178 20.48C169.118 19.8 169.728 18.86 170.008 17.66H172.258C171.878 19.34 171.028 20.69 169.708 21.71C168.388 22.73 166.728 23.24 164.728 23.24C163.188 23.24 161.818 22.9 160.618 22.22C159.418 21.52 158.478 20.54 157.798 19.28C157.118 18 156.778 16.51 156.778 14.81ZM178.866 8.39V18.56C178.866 19.56 179.056 20.25 179.436 20.63C179.816 21.01 180.486 21.2 181.446 21.2H183.366V23H181.116C179.636 23 178.536 22.66 177.816 21.98C177.096 21.28 176.736 20.14 176.736 18.56V8.39H174.456V6.62H176.736V2.51H178.866V6.62H183.366V8.39H178.866ZM192.47 23.24C190.59 23.24 189.05 22.81 187.85 21.95C186.67 21.07 186.01 19.88 185.87 18.38H188.03C188.13 19.3 188.56 20.05 189.32 20.63C190.1 21.19 191.14 21.47 192.44 21.47C193.58 21.47 194.47 21.2 195.11 20.66C195.77 20.12 196.1 19.45 196.1 18.65C196.1 18.09 195.92 17.63 195.56 17.27C195.2 16.91 194.74 16.63 194.18 16.43C193.64 16.21 192.9 15.98 191.96 15.74C190.74 15.42 189.75 15.1 188.99 14.78C188.23 14.46 187.58 13.99 187.04 13.37C186.52 12.73 186.26 11.88 186.26 10.82C186.26 10.02 186.5 9.28 186.98 8.6C187.46 7.92 188.14 7.38 189.02 6.98C189.9 6.58 190.9 6.38 192.02 6.38C193.78 6.38 195.2 6.83 196.28 7.73C197.36 8.61 197.94 9.83 198.02 11.39H195.92C195.86 10.43 195.48 9.66 194.78 9.08C194.1 8.48 193.16 8.18 191.96 8.18C190.9 8.18 190.04 8.43 189.38 8.93C188.72 9.43 188.39 10.05 188.39 10.79C188.39 11.43 188.58 11.96 188.96 12.38C189.36 12.78 189.85 13.1 190.43 13.34C191.01 13.56 191.79 13.81 192.77 14.09C193.95 14.41 194.89 14.72 195.59 15.02C196.29 15.32 196.89 15.76 197.39 16.34C197.89 16.92 198.15 17.69 198.17 18.65C198.17 19.53 197.93 20.32 197.45 21.02C196.97 21.7 196.3 22.24 195.44 22.64C194.58 23.04 193.59 23.24 192.47 23.24Z" fill="black"/>
</svg>
