<svg width="101" height="28" viewBox="0 0 101 28" fill="none" xmlns="http://www.w3.org/2000/svg">
<path d="M77.375 13.5H97.625" stroke="white" stroke-width="3" stroke-linecap="round" stroke-linejoin="round"/>
<path d="M77.375 6.75H97.625" stroke="white" stroke-width="3" stroke-linecap="round" stroke-linejoin="round"/>
<path d="M77.375 20.25H97.625" stroke="white" stroke-width="3" stroke-linecap="round" stroke-linejoin="round"/>
<g clip-path="url(#clip0_1_17)">
<path d="M47.125 24.75C47.7463 24.75 48.25 24.2463 48.25 23.625C48.25 23.0037 47.7463 22.5 47.125 22.5C46.5037 22.5 46 23.0037 46 23.625C46 24.2463 46.5037 24.75 47.125 24.75Z" stroke="white" stroke-width="3" stroke-linecap="round" stroke-linejoin="round"/>
<path d="M59.5 24.75C60.1213 24.75 60.625 24.2463 60.625 23.625C60.625 23.0037 60.1213 22.5 59.5 22.5C58.8787 22.5 58.375 23.0037 58.375 23.625C58.375 24.2463 58.8787 24.75 59.5 24.75Z" stroke="white" stroke-width="3" stroke-linecap="round" stroke-linejoin="round"/>
<path d="M38.125 1.125H42.625L45.64 16.1888C45.7429 16.7067 46.0246 17.172 46.436 17.5031C46.8473 17.8342 47.362 18.0101 47.89 18H58.825C59.353 18.0101 59.8677 17.8342 60.279 17.5031C60.6904 17.172 60.9721 16.7067 61.075 16.1888L62.875 6.75H43.75" stroke="white" stroke-width="3" stroke-linecap="round" stroke-linejoin="round"/>
</g>
<path d="M22.5 24.625V22.375C22.5 21.1815 22.0259 20.0369 21.182 19.193C20.3381 18.3491 19.1935 17.875 18 17.875H9C7.80653 17.875 6.66193 18.3491 5.81802 19.193C4.97411 20.0369 4.5 21.1815 4.5 22.375V24.625" stroke="white" stroke-width="3" stroke-linecap="round" stroke-linejoin="round"/>
<path d="M13.5 13.375C15.9853 13.375 18 11.3603 18 8.875C18 6.38972 15.9853 4.375 13.5 4.375C11.0147 4.375 9 6.38972 9 8.875C9 11.3603 11.0147 13.375 13.5 13.375Z" stroke="white" stroke-width="3" stroke-linecap="round" stroke-linejoin="round"/>
<defs>
<clipPath id="clip0_1_17">
<rect width="27" height="27" fill="white" transform="translate(37)"/>
</clipPath>
</defs>
</svg>
