<svg width="120" height="18" viewBox="0 0 120 18" fill="none" xmlns="http://www.w3.org/2000/svg">
<path d="M1.984 2.808C1.70667 2.808 1.472 2.712 1.28 2.52C1.088 2.328 0.992 2.09333 0.992 1.816C0.992 1.53867 1.088 1.304 1.28 1.112C1.472 0.919999 1.70667 0.823999 1.984 0.823999C2.25067 0.823999 2.47467 0.919999 2.656 1.112C2.848 1.304 2.944 1.53867 2.944 1.816C2.944 2.09333 2.848 2.328 2.656 2.52C2.47467 2.712 2.25067 2.808 1.984 2.808ZM2.688 4.232V13H1.232V4.232H2.688ZM9.4415 4.072C10.5082 4.072 11.3722 4.39733 12.0335 5.048C12.6948 5.688 13.0255 6.616 13.0255 7.832V13H11.5855V8.04C11.5855 7.16533 11.3668 6.49867 10.9295 6.04C10.4922 5.57067 9.89483 5.336 9.1375 5.336C8.3695 5.336 7.75617 5.576 7.2975 6.056C6.8495 6.536 6.6255 7.23467 6.6255 8.152V13H5.1695V4.232H6.6255V5.48C6.9135 5.032 7.30283 4.68533 7.7935 4.44C8.29483 4.19467 8.84417 4.072 9.4415 4.072ZM18.9719 5.432H17.1319V13H15.6759V5.432H14.5399V4.232H15.6759V3.608C15.6759 2.62667 15.9265 1.912 16.4279 1.464C16.9399 1.00533 17.7559 0.775999 18.8759 0.775999V1.992C18.2359 1.992 17.7825 2.12 17.5159 2.376C17.2599 2.62133 17.1319 3.032 17.1319 3.608V4.232H18.9719V5.432ZM24.4935 13.144C23.6722 13.144 22.9255 12.9573 22.2535 12.584C21.5922 12.2107 21.0695 11.6827 20.6855 11C20.3122 10.3067 20.1255 9.50667 20.1255 8.6C20.1255 7.704 20.3175 6.91467 20.7015 6.232C21.0962 5.53867 21.6295 5.01067 22.3015 4.648C22.9735 4.27467 23.7255 4.088 24.5575 4.088C25.3895 4.088 26.1415 4.27467 26.8135 4.648C27.4855 5.01067 28.0135 5.53333 28.3975 6.216C28.7922 6.89867 28.9895 7.69333 28.9895 8.6C28.9895 9.50667 28.7868 10.3067 28.3815 11C27.9868 11.6827 27.4482 12.2107 26.7655 12.584C26.0828 12.9573 25.3255 13.144 24.4935 13.144ZM24.4935 11.864C25.0162 11.864 25.5068 11.7413 25.9655 11.496C26.4242 11.2507 26.7922 10.8827 27.0695 10.392C27.3575 9.90133 27.5015 9.304 27.5015 8.6C27.5015 7.896 27.3628 7.29867 27.0855 6.808C26.8082 6.31733 26.4455 5.95467 25.9975 5.72C25.5495 5.47467 25.0642 5.352 24.5415 5.352C24.0082 5.352 23.5175 5.47467 23.0695 5.72C22.6322 5.95467 22.2802 6.31733 22.0135 6.808C21.7468 7.29867 21.6135 7.896 21.6135 8.6C21.6135 9.31467 21.7415 9.91733 21.9975 10.408C22.2642 10.8987 22.6162 11.2667 23.0535 11.512C23.4908 11.7467 23.9708 11.864 24.4935 11.864ZM38.9039 2.744C40.0879 2.744 41.1172 2.968 41.9919 3.416C42.8665 3.864 43.5385 4.49333 44.0079 5.304C44.4772 6.104 44.7119 7.032 44.7119 8.088C44.7119 8.93067 44.5732 9.74133 44.2959 10.52C44.0185 11.288 43.6132 11.912 43.0799 12.392C42.5572 12.872 41.9439 13.112 41.2399 13.112C40.7065 13.112 40.2959 12.9787 40.0079 12.712C39.7199 12.4453 39.5545 12.0827 39.5119 11.624C39.1812 12.0827 38.7599 12.4453 38.2479 12.712C37.7465 12.9787 37.2132 13.112 36.6479 13.112C35.8372 13.112 35.1972 12.8667 34.7279 12.376C34.2692 11.8747 34.0399 11.2027 34.0399 10.36C34.0399 9.56 34.2052 8.81333 34.5359 8.12C34.8772 7.42667 35.3465 6.872 35.9439 6.456C36.5412 6.02933 37.2185 5.816 37.9759 5.816C38.9892 5.816 39.6719 6.2 40.0239 6.968L40.1999 5.976H41.4639L40.6639 10.6C40.6319 10.8027 40.6159 10.9893 40.6159 11.16C40.6159 11.8 40.8985 12.12 41.4639 12.12C41.8905 12.12 42.2585 11.9173 42.5679 11.512C42.8879 11.1067 43.1279 10.6 43.2879 9.992C43.4479 9.37333 43.5279 8.76533 43.5279 8.168C43.5279 6.77067 43.1065 5.688 42.2639 4.92C41.4319 4.152 40.2532 3.768 38.7279 3.768C37.4585 3.768 36.3119 4.07733 35.2879 4.696C34.2745 5.304 33.4799 6.14133 32.9039 7.208C32.3279 8.27467 32.0399 9.45333 32.0399 10.744C32.0292 12.152 32.4505 13.2347 33.3039 13.992C34.1572 14.76 35.3412 15.144 36.8559 15.144C37.8585 15.144 38.7439 14.9627 39.5119 14.6L39.7039 15.592C38.7545 15.9867 37.7092 16.184 36.5679 16.184C35.4265 16.184 34.4185 15.9653 33.5439 15.528C32.6799 15.1013 32.0079 14.4827 31.5279 13.672C31.0585 12.872 30.8239 11.9387 30.8239 10.872C30.8239 9.368 31.1705 7.99733 31.8639 6.76C32.5572 5.512 33.5172 4.53067 34.7439 3.816C35.9812 3.10133 37.3679 2.744 38.9039 2.744ZM37.0799 11.976C37.5599 11.976 38.0025 11.8373 38.4079 11.56C38.8132 11.272 39.1332 10.888 39.3679 10.408C39.6025 9.91733 39.7199 9.384 39.7199 8.808C39.7199 8.25333 39.5652 7.80533 39.2559 7.464C38.9572 7.112 38.5305 6.936 37.9759 6.936C37.4639 6.936 37.0105 7.09067 36.6159 7.4C36.2319 7.69867 35.9332 8.09867 35.7199 8.6C35.5065 9.09067 35.3999 9.60267 35.3999 10.136C35.3999 10.7013 35.5439 11.1493 35.8319 11.48C36.1199 11.8107 36.5359 11.976 37.0799 11.976ZM48.883 5.432V10.6C48.883 11.0267 48.9737 11.3307 49.155 11.512C49.3363 11.6827 49.651 11.768 50.099 11.768H51.171V13H49.859C49.0483 13 48.4403 12.8133 48.035 12.44C47.6297 12.0667 47.427 11.4533 47.427 10.6V5.432H46.291V4.232H47.427V2.024H48.883V4.232H51.171V5.432H48.883ZM63.4791 4.072C64.1618 4.072 64.7698 4.216 65.3031 4.504C65.8365 4.78133 66.2578 5.20267 66.5671 5.768C66.8765 6.33333 67.0311 7.02133 67.0311 7.832V13H65.5911V8.04C65.5911 7.16533 65.3725 6.49867 64.9351 6.04C64.5085 5.57067 63.9271 5.336 63.1911 5.336C62.4338 5.336 61.8311 5.58133 61.3831 6.072C60.9351 6.552 60.7111 7.25067 60.7111 8.168V13H59.2711V8.04C59.2711 7.16533 59.0525 6.49867 58.6151 6.04C58.1885 5.57067 57.6071 5.336 56.8711 5.336C56.1138 5.336 55.5111 5.58133 55.0631 6.072C54.6151 6.552 54.3911 7.25067 54.3911 8.168V13H52.9351V4.232H54.3911V5.496C54.6791 5.03733 55.0631 4.68533 55.5431 4.44C56.0338 4.19467 56.5725 4.072 57.1591 4.072C57.8951 4.072 58.5458 4.23733 59.1111 4.568C59.6765 4.89867 60.0978 5.384 60.3751 6.024C60.6205 5.40533 61.0258 4.92533 61.5911 4.584C62.1565 4.24267 62.7858 4.072 63.4791 4.072ZM68.8755 8.584C68.8755 7.688 69.0568 6.904 69.4195 6.232C69.7822 5.54933 70.2782 5.02133 70.9075 4.648C71.5475 4.27467 72.2568 4.088 73.0355 4.088C73.8035 4.088 74.4702 4.25333 75.0355 4.584C75.6008 4.91467 76.0222 5.33067 76.2995 5.832V4.232H77.7715V13H76.2995V11.368C76.0115 11.88 75.5795 12.3067 75.0035 12.648C74.4382 12.9787 73.7768 13.144 73.0195 13.144C72.2408 13.144 71.5368 12.952 70.9075 12.568C70.2782 12.184 69.7822 11.6453 69.4195 10.952C69.0568 10.2587 68.8755 9.46933 68.8755 8.584ZM76.2995 8.6C76.2995 7.93867 76.1662 7.36267 75.8995 6.872C75.6328 6.38133 75.2702 6.008 74.8115 5.752C74.3635 5.48533 73.8675 5.352 73.3235 5.352C72.7795 5.352 72.2835 5.48 71.8355 5.736C71.3875 5.992 71.0302 6.36533 70.7635 6.856C70.4968 7.34667 70.3635 7.92267 70.3635 8.584C70.3635 9.256 70.4968 9.84267 70.7635 10.344C71.0302 10.8347 71.3875 11.2133 71.8355 11.48C72.2835 11.736 72.7795 11.864 73.3235 11.864C73.8675 11.864 74.3635 11.736 74.8115 11.48C75.2702 11.2133 75.6328 10.8347 75.8995 10.344C76.1662 9.84267 76.2995 9.26133 76.2995 8.6ZM81.688 5.656C81.944 5.15467 82.3067 4.76533 82.776 4.488C83.256 4.21067 83.8373 4.072 84.52 4.072V5.576H84.136C82.504 5.576 81.688 6.46133 81.688 8.232V13H80.232V4.232H81.688V5.656ZM87.9768 5.432V10.6C87.9768 11.0267 88.0674 11.3307 88.2488 11.512C88.4301 11.6827 88.7448 11.768 89.1927 11.768H90.2648V13H88.9528C88.1421 13 87.5341 12.8133 87.1288 12.44C86.7234 12.0667 86.5208 11.4533 86.5208 10.6V5.432H85.3848V4.232H86.5208V2.024H87.9768V4.232H90.2648V5.432H87.9768ZM92.4929 13.096C92.2155 13.096 91.9809 13 91.7889 12.808C91.5969 12.616 91.5009 12.3813 91.5009 12.104C91.5009 11.8267 91.5969 11.592 91.7889 11.4C91.9809 11.208 92.2155 11.112 92.4929 11.112C92.7595 11.112 92.9835 11.208 93.1649 11.4C93.3569 11.592 93.4529 11.8267 93.4529 12.104C93.4529 12.3813 93.3569 12.616 93.1649 12.808C92.9835 13 92.7595 13.096 92.4929 13.096ZM99.2123 13.144C98.3909 13.144 97.6443 12.9573 96.9723 12.584C96.3109 12.2107 95.7883 11.6827 95.4043 11C95.0309 10.3067 94.8443 9.50667 94.8443 8.6C94.8443 7.704 95.0363 6.91467 95.4203 6.232C95.8149 5.53867 96.3483 5.01067 97.0203 4.648C97.6923 4.27467 98.4443 4.088 99.2763 4.088C100.108 4.088 100.86 4.27467 101.532 4.648C102.204 5.01067 102.732 5.53333 103.116 6.216C103.511 6.89867 103.708 7.69333 103.708 8.6C103.708 9.50667 103.506 10.3067 103.1 11C102.706 11.6827 102.167 12.2107 101.484 12.584C100.802 12.9573 100.044 13.144 99.2123 13.144ZM99.2123 11.864C99.7349 11.864 100.226 11.7413 100.684 11.496C101.143 11.2507 101.511 10.8827 101.788 10.392C102.076 9.90133 102.22 9.304 102.22 8.6C102.22 7.896 102.082 7.29867 101.804 6.808C101.527 6.31733 101.164 5.95467 100.716 5.72C100.268 5.47467 99.7829 5.352 99.2603 5.352C98.7269 5.352 98.2363 5.47467 97.7883 5.72C97.3509 5.95467 96.9989 6.31733 96.7323 6.808C96.4656 7.29867 96.3323 7.896 96.3323 8.6C96.3323 9.31467 96.4603 9.91733 96.7163 10.408C96.9829 10.8987 97.3349 11.2667 97.7723 11.512C98.2096 11.7467 98.6896 11.864 99.2123 11.864ZM107.079 5.656C107.335 5.15467 107.697 4.76533 108.167 4.488C108.647 4.21067 109.228 4.072 109.911 4.072V5.576H109.527C107.895 5.576 107.079 6.46133 107.079 8.232V13H105.623V4.232H107.079V5.656ZM115.207 4.088C115.965 4.088 116.626 4.25333 117.191 4.584C117.767 4.91467 118.194 5.33067 118.471 5.832V4.232H119.943V13.192C119.943 13.992 119.773 14.7013 119.431 15.32C119.09 15.9493 118.599 16.44 117.959 16.792C117.33 17.144 116.594 17.32 115.751 17.32C114.599 17.32 113.639 17.048 112.871 16.504C112.103 15.96 111.65 15.2187 111.511 14.28H112.951C113.111 14.8133 113.442 15.24 113.943 15.56C114.445 15.8907 115.047 16.056 115.751 16.056C116.551 16.056 117.202 15.8053 117.703 15.304C118.215 14.8027 118.471 14.0987 118.471 13.192V11.352C118.183 11.864 117.757 12.2907 117.191 12.632C116.626 12.9733 115.965 13.144 115.207 13.144C114.429 13.144 113.719 12.952 113.079 12.568C112.45 12.184 111.954 11.6453 111.591 10.952C111.229 10.2587 111.047 9.46933 111.047 8.584C111.047 7.688 111.229 6.904 111.591 6.232C111.954 5.54933 112.45 5.02133 113.079 4.648C113.719 4.27467 114.429 4.088 115.207 4.088ZM118.471 8.6C118.471 7.93867 118.338 7.36267 118.071 6.872C117.805 6.38133 117.442 6.008 116.983 5.752C116.535 5.48533 116.039 5.352 115.495 5.352C114.951 5.352 114.455 5.48 114.007 5.736C113.559 5.992 113.202 6.36533 112.935 6.856C112.669 7.34667 112.535 7.92267 112.535 8.584C112.535 9.256 112.669 9.84267 112.935 10.344C113.202 10.8347 113.559 11.2133 114.007 11.48C114.455 11.736 114.951 11.864 115.495 11.864C116.039 11.864 116.535 11.736 116.983 11.48C117.442 11.2133 117.805 10.8347 118.071 10.344C118.338 9.84267 118.471 9.26133 118.471 8.6Z" fill="black"/>
</svg>
